<mxfile host="app.diagrams.net" modified="2021-04-05T04:30:14.675Z" agent="5.0 (Windows)" etag="Su_fNYUIjSYCYx_LyNuN" version="14.4.9" type="github" pages="2">
  <diagram id="d_cdNI_9_HA7muEhNs_2" name="Page-1">
    <mxGraphModel dx="776" dy="689" grid="1" gridSize="10" guides="1" tooltips="1" connect="1" arrows="1" fold="1" page="1" pageScale="1" pageWidth="850" pageHeight="1100" math="0" shadow="0">
      <root>
        <mxCell id="0" />
        <mxCell id="1" parent="0" />
        <mxCell id="eoW9HrE7sBiN5cPpCfA_-1" value="" style="rounded=0;whiteSpace=wrap;html=1;" vertex="1" parent="1">
          <mxGeometry x="40" y="40" width="740" height="550" as="geometry" />
        </mxCell>
        <mxCell id="Dl33rs6ybzx7bQkM0O4W-1" value="Advanced options" style="text;html=1;align=center;verticalAlign=middle;whiteSpace=wrap;rounded=0;fontColor=#3908FF;" vertex="1" parent="1">
          <mxGeometry x="265" y="360" width="110" height="20" as="geometry" />
        </mxCell>
        <mxCell id="Dl33rs6ybzx7bQkM0O4W-2" value="&lt;font style=&quot;font-size: 25px&quot; color=&quot;#009900&quot;&gt;Go&lt;/font&gt;" style="rounded=0;whiteSpace=wrap;html=1;fontColor=#3908FF;" vertex="1" parent="1">
          <mxGeometry x="270" y="410" width="120" height="60" as="geometry" />
        </mxCell>
        <mxCell id="Dl33rs6ybzx7bQkM0O4W-3" value="Enter a search query:" style="text;html=1;strokeColor=none;fillColor=none;align=center;verticalAlign=middle;whiteSpace=wrap;rounded=0;" vertex="1" parent="1">
          <mxGeometry x="90" y="210" width="140" height="20" as="geometry" />
        </mxCell>
        <mxCell id="Dl33rs6ybzx7bQkM0O4W-4" value="Select media type:" style="text;html=1;strokeColor=none;fillColor=none;align=center;verticalAlign=middle;whiteSpace=wrap;rounded=0;fontColor=#000000;" vertex="1" parent="1">
          <mxGeometry x="100" y="250" width="120" height="20" as="geometry" />
        </mxCell>
        <mxCell id="Dl33rs6ybzx7bQkM0O4W-5" value="" style="ellipse;whiteSpace=wrap;html=1;aspect=fixed;fontColor=#000000;" vertex="1" parent="1">
          <mxGeometry x="270" y="250" width="20" height="20" as="geometry" />
        </mxCell>
        <mxCell id="Dl33rs6ybzx7bQkM0O4W-6" value="" style="ellipse;whiteSpace=wrap;html=1;aspect=fixed;fontColor=#000000;" vertex="1" parent="1">
          <mxGeometry x="270" y="280" width="20" height="20" as="geometry" />
        </mxCell>
        <mxCell id="Dl33rs6ybzx7bQkM0O4W-7" value="" style="ellipse;whiteSpace=wrap;html=1;aspect=fixed;fontColor=#000000;" vertex="1" parent="1">
          <mxGeometry x="270" y="310" width="20" height="20" as="geometry" />
        </mxCell>
        <mxCell id="Dl33rs6ybzx7bQkM0O4W-8" value="" style="rounded=0;whiteSpace=wrap;html=1;fontColor=#000000;" vertex="1" parent="1">
          <mxGeometry x="270" y="205" width="460" height="30" as="geometry" />
        </mxCell>
        <mxCell id="Dl33rs6ybzx7bQkM0O4W-9" value="All" style="text;html=1;strokeColor=none;fillColor=none;align=center;verticalAlign=middle;whiteSpace=wrap;rounded=0;fontColor=#000000;" vertex="1" parent="1">
          <mxGeometry x="300" y="250" width="40" height="20" as="geometry" />
        </mxCell>
        <mxCell id="Dl33rs6ybzx7bQkM0O4W-10" value="Textual" style="text;html=1;strokeColor=none;fillColor=none;align=center;verticalAlign=middle;whiteSpace=wrap;rounded=0;fontColor=#000000;" vertex="1" parent="1">
          <mxGeometry x="310" y="280" width="40" height="20" as="geometry" />
        </mxCell>
        <mxCell id="Dl33rs6ybzx7bQkM0O4W-11" value="Multimedia" style="text;html=1;strokeColor=none;fillColor=none;align=center;verticalAlign=middle;whiteSpace=wrap;rounded=0;fontColor=#000000;" vertex="1" parent="1">
          <mxGeometry x="320" y="310" width="40" height="20" as="geometry" />
        </mxCell>
        <mxCell id="Dl33rs6ybzx7bQkM0O4W-15" value="" style="ellipse;whiteSpace=wrap;html=1;aspect=fixed;fontColor=#000000;fillColor=#000000;" vertex="1" parent="1">
          <mxGeometry x="275" y="255" width="10" height="10" as="geometry" />
        </mxCell>
        <mxCell id="Dl33rs6ybzx7bQkM0O4W-17" value="&lt;font style=&quot;font-size: 32px&quot;&gt;Search Query System&lt;/font&gt;" style="text;html=1;strokeColor=none;fillColor=none;align=center;verticalAlign=middle;whiteSpace=wrap;rounded=0;fontColor=#000000;" vertex="1" parent="1">
          <mxGeometry x="140" y="110" width="520" height="20" as="geometry" />
        </mxCell>
      </root>
    </mxGraphModel>
  </diagram>
  <diagram id="lIeGJiNpYbrThmC1g8ag" name="Page-2">
    <mxGraphModel dx="776" dy="689" grid="1" gridSize="10" guides="1" tooltips="1" connect="1" arrows="1" fold="1" page="1" pageScale="1" pageWidth="850" pageHeight="1100" math="0" shadow="0">
      <root>
        <mxCell id="T1Asv5-lbITlJTZevgzh-0" />
        <mxCell id="T1Asv5-lbITlJTZevgzh-1" parent="T1Asv5-lbITlJTZevgzh-0" />
        <mxCell id="T1Asv5-lbITlJTZevgzh-2" value="" style="rounded=0;whiteSpace=wrap;html=1;" vertex="1" parent="T1Asv5-lbITlJTZevgzh-1">
          <mxGeometry x="40" y="40" width="740" height="550" as="geometry" />
        </mxCell>
        <mxCell id="m5aJ2CZcX3-lm2xq07Fh-0" value="Results" style="text;html=1;strokeColor=none;fillColor=none;align=center;verticalAlign=middle;whiteSpace=wrap;rounded=0;fontColor=#000000;fontStyle=1" vertex="1" parent="T1Asv5-lbITlJTZevgzh-1">
          <mxGeometry x="70" y="120" width="70" height="30" as="geometry" />
        </mxCell>
        <mxCell id="m5aJ2CZcX3-lm2xq07Fh-1" value="1. A Timeline of Dr. Seuss books" style="text;html=1;strokeColor=none;fillColor=none;align=center;verticalAlign=middle;whiteSpace=wrap;rounded=0;fontColor=#000000;" vertex="1" parent="T1Asv5-lbITlJTZevgzh-1">
          <mxGeometry x="140" y="160" width="200" height="20" as="geometry" />
        </mxCell>
        <mxCell id="m5aJ2CZcX3-lm2xq07Fh-4" value="Dr. Seuss" style="rounded=0;whiteSpace=wrap;html=1;fontColor=#000000;fillColor=none;" vertex="1" parent="T1Asv5-lbITlJTZevgzh-1">
          <mxGeometry x="160" y="50" width="370" height="40" as="geometry" />
        </mxCell>
        <mxCell id="Ct6EKm60Mmvj-SL4ueRM-0" value="Query:" style="text;html=1;strokeColor=none;fillColor=none;align=center;verticalAlign=middle;whiteSpace=wrap;rounded=0;" vertex="1" parent="T1Asv5-lbITlJTZevgzh-1">
          <mxGeometry x="50" y="60" width="140" height="20" as="geometry" />
        </mxCell>
        <mxCell id="xDdioc2tMFnnwfWLWseS-0" value="Media type:" style="text;html=1;strokeColor=none;fillColor=none;align=center;verticalAlign=middle;whiteSpace=wrap;rounded=0;fontColor=#000000;" vertex="1" parent="T1Asv5-lbITlJTZevgzh-1">
          <mxGeometry x="530" y="50" width="120" height="20" as="geometry" />
        </mxCell>
        <mxCell id="xDdioc2tMFnnwfWLWseS-1" value="" style="ellipse;whiteSpace=wrap;html=1;aspect=fixed;fontColor=#000000;" vertex="1" parent="T1Asv5-lbITlJTZevgzh-1">
          <mxGeometry x="670" y="50" width="20" height="20" as="geometry" />
        </mxCell>
        <mxCell id="xDdioc2tMFnnwfWLWseS-2" value="" style="ellipse;whiteSpace=wrap;html=1;aspect=fixed;fontColor=#000000;" vertex="1" parent="T1Asv5-lbITlJTZevgzh-1">
          <mxGeometry x="670" y="80" width="20" height="20" as="geometry" />
        </mxCell>
        <mxCell id="xDdioc2tMFnnwfWLWseS-3" value="" style="ellipse;whiteSpace=wrap;html=1;aspect=fixed;fontColor=#000000;" vertex="1" parent="T1Asv5-lbITlJTZevgzh-1">
          <mxGeometry x="670" y="110" width="20" height="20" as="geometry" />
        </mxCell>
        <mxCell id="xDdioc2tMFnnwfWLWseS-4" value="All" style="text;html=1;strokeColor=none;fillColor=none;align=center;verticalAlign=middle;whiteSpace=wrap;rounded=0;fontColor=#000000;" vertex="1" parent="T1Asv5-lbITlJTZevgzh-1">
          <mxGeometry x="700" y="50" width="40" height="20" as="geometry" />
        </mxCell>
        <mxCell id="xDdioc2tMFnnwfWLWseS-5" value="Textual" style="text;html=1;strokeColor=none;fillColor=none;align=center;verticalAlign=middle;whiteSpace=wrap;rounded=0;fontColor=#000000;" vertex="1" parent="T1Asv5-lbITlJTZevgzh-1">
          <mxGeometry x="710" y="80" width="40" height="20" as="geometry" />
        </mxCell>
        <mxCell id="xDdioc2tMFnnwfWLWseS-6" value="Multimedia" style="text;html=1;strokeColor=none;fillColor=none;align=center;verticalAlign=middle;whiteSpace=wrap;rounded=0;fontColor=#000000;" vertex="1" parent="T1Asv5-lbITlJTZevgzh-1">
          <mxGeometry x="720" y="110" width="40" height="20" as="geometry" />
        </mxCell>
        <mxCell id="xDdioc2tMFnnwfWLWseS-7" value="" style="ellipse;whiteSpace=wrap;html=1;aspect=fixed;fontColor=#000000;fillColor=#000000;" vertex="1" parent="T1Asv5-lbITlJTZevgzh-1">
          <mxGeometry x="675" y="55" width="10" height="10" as="geometry" />
        </mxCell>
        <mxCell id="xDdioc2tMFnnwfWLWseS-8" value="200 results found. 3 shown." style="text;html=1;strokeColor=none;fillColor=none;align=center;verticalAlign=middle;whiteSpace=wrap;rounded=0;fontColor=#000000;" vertex="1" parent="T1Asv5-lbITlJTZevgzh-1">
          <mxGeometry x="110" y="125" width="250" height="20" as="geometry" />
        </mxCell>
        <mxCell id="xDdioc2tMFnnwfWLWseS-9" value="&lt;font style=&quot;font-size: 16px&quot;&gt;&lt;b&gt;See more...&lt;/b&gt;&lt;/font&gt;" style="text;html=1;strokeColor=none;fillColor=none;align=center;verticalAlign=middle;whiteSpace=wrap;rounded=0;fontColor=#3908FF;" vertex="1" parent="T1Asv5-lbITlJTZevgzh-1">
          <mxGeometry x="185" y="520" width="100" height="20" as="geometry" />
        </mxCell>
        <mxCell id="xDdioc2tMFnnwfWLWseS-11" value="" style="rounded=0;whiteSpace=wrap;html=1;fillColor=none;fontColor=#3908FF;" vertex="1" parent="T1Asv5-lbITlJTZevgzh-1">
          <mxGeometry x="190" y="180" width="70" height="70" as="geometry" />
        </mxCell>
        <mxCell id="xDdioc2tMFnnwfWLWseS-12" value="" style="rounded=0;whiteSpace=wrap;html=1;fillColor=none;fontColor=#3908FF;" vertex="1" parent="T1Asv5-lbITlJTZevgzh-1">
          <mxGeometry x="190" y="280" width="70" height="70" as="geometry" />
        </mxCell>
        <mxCell id="xDdioc2tMFnnwfWLWseS-13" value="" style="rounded=0;whiteSpace=wrap;html=1;fillColor=none;fontColor=#3908FF;" vertex="1" parent="T1Asv5-lbITlJTZevgzh-1">
          <mxGeometry x="190" y="390" width="70" height="70" as="geometry" />
        </mxCell>
        <mxCell id="xDdioc2tMFnnwfWLWseS-14" value="2. The Cat in the Hat" style="text;html=1;align=center;verticalAlign=middle;resizable=0;points=[];autosize=1;" vertex="1" parent="T1Asv5-lbITlJTZevgzh-1">
          <mxGeometry x="140" y="260" width="140" height="20" as="geometry" />
        </mxCell>
        <mxCell id="xDdioc2tMFnnwfWLWseS-15" value="3. A biography of Dr. Seuss" style="text;html=1;align=center;verticalAlign=middle;resizable=0;points=[];autosize=1;" vertex="1" parent="T1Asv5-lbITlJTZevgzh-1">
          <mxGeometry x="140" y="370" width="170" height="20" as="geometry" />
        </mxCell>
        <mxCell id="xDdioc2tMFnnwfWLWseS-16" value="Image" style="text;html=1;align=center;verticalAlign=middle;resizable=0;points=[];autosize=1;fontColor=#000000;" vertex="1" parent="T1Asv5-lbITlJTZevgzh-1">
          <mxGeometry x="200" y="205" width="50" height="20" as="geometry" />
        </mxCell>
        <mxCell id="xDdioc2tMFnnwfWLWseS-17" value="Image" style="text;html=1;align=center;verticalAlign=middle;resizable=0;points=[];autosize=1;fontColor=#000000;" vertex="1" parent="T1Asv5-lbITlJTZevgzh-1">
          <mxGeometry x="200" y="305" width="50" height="20" as="geometry" />
        </mxCell>
        <mxCell id="xDdioc2tMFnnwfWLWseS-18" value="Image" style="text;html=1;align=center;verticalAlign=middle;resizable=0;points=[];autosize=1;fontColor=#000000;" vertex="1" parent="T1Asv5-lbITlJTZevgzh-1">
          <mxGeometry x="200" y="415" width="50" height="20" as="geometry" />
        </mxCell>
        <mxCell id="xDdioc2tMFnnwfWLWseS-19" value="&lt;font color=&quot;#3908FF&quot;&gt;A Timeline of Dr. Seuss books&lt;/font&gt;" style="text;html=1;strokeColor=none;fillColor=none;align=center;verticalAlign=middle;whiteSpace=wrap;rounded=0;fontColor=#000000;" vertex="1" parent="T1Asv5-lbITlJTZevgzh-1">
          <mxGeometry x="350" y="180" width="210" height="20" as="geometry" />
        </mxCell>
        <mxCell id="xDdioc2tMFnnwfWLWseS-20" value="Title:" style="text;html=1;strokeColor=none;fillColor=none;align=center;verticalAlign=middle;whiteSpace=wrap;rounded=0;fontColor=#000000;" vertex="1" parent="T1Asv5-lbITlJTZevgzh-1">
          <mxGeometry x="285" y="180" width="40" height="20" as="geometry" />
        </mxCell>
        <mxCell id="xDdioc2tMFnnwfWLWseS-21" value="Type:" style="text;html=1;align=center;verticalAlign=middle;resizable=0;points=[];autosize=1;fontColor=#000000;" vertex="1" parent="T1Asv5-lbITlJTZevgzh-1">
          <mxGeometry x="280" y="200" width="50" height="20" as="geometry" />
        </mxCell>
        <mxCell id="xDdioc2tMFnnwfWLWseS-22" value="Video" style="text;html=1;align=center;verticalAlign=middle;resizable=0;points=[];autosize=1;fontColor=#000000;" vertex="1" parent="T1Asv5-lbITlJTZevgzh-1">
          <mxGeometry x="360" y="200" width="50" height="20" as="geometry" />
        </mxCell>
        <mxCell id="xDdioc2tMFnnwfWLWseS-23" value="Author:" style="text;html=1;align=center;verticalAlign=middle;resizable=0;points=[];autosize=1;fontColor=#000000;" vertex="1" parent="T1Asv5-lbITlJTZevgzh-1">
          <mxGeometry x="280" y="220" width="60" height="20" as="geometry" />
        </mxCell>
        <mxCell id="xDdioc2tMFnnwfWLWseS-24" value="Example author" style="text;html=1;align=center;verticalAlign=middle;resizable=0;points=[];autosize=1;fontColor=#000000;" vertex="1" parent="T1Asv5-lbITlJTZevgzh-1">
          <mxGeometry x="360" y="220" width="110" height="20" as="geometry" />
        </mxCell>
        <mxCell id="xDdioc2tMFnnwfWLWseS-25" value="&lt;font color=&quot;#3908FF&quot;&gt;The Cat in the Hat&lt;/font&gt;" style="text;html=1;strokeColor=none;fillColor=none;align=center;verticalAlign=middle;whiteSpace=wrap;rounded=0;fontColor=#000000;" vertex="1" parent="T1Asv5-lbITlJTZevgzh-1">
          <mxGeometry x="310" y="280" width="210" height="20" as="geometry" />
        </mxCell>
        <mxCell id="xDdioc2tMFnnwfWLWseS-26" value="Title:" style="text;html=1;strokeColor=none;fillColor=none;align=center;verticalAlign=middle;whiteSpace=wrap;rounded=0;fontColor=#000000;" vertex="1" parent="T1Asv5-lbITlJTZevgzh-1">
          <mxGeometry x="290" y="280" width="40" height="20" as="geometry" />
        </mxCell>
        <mxCell id="xDdioc2tMFnnwfWLWseS-27" value="Type:" style="text;html=1;align=center;verticalAlign=middle;resizable=0;points=[];autosize=1;fontColor=#000000;" vertex="1" parent="T1Asv5-lbITlJTZevgzh-1">
          <mxGeometry x="285" y="300" width="50" height="20" as="geometry" />
        </mxCell>
        <mxCell id="xDdioc2tMFnnwfWLWseS-28" value="Book" style="text;html=1;align=center;verticalAlign=middle;resizable=0;points=[];autosize=1;fontColor=#000000;" vertex="1" parent="T1Asv5-lbITlJTZevgzh-1">
          <mxGeometry x="360" y="300" width="40" height="20" as="geometry" />
        </mxCell>
        <mxCell id="xDdioc2tMFnnwfWLWseS-29" value="Author:" style="text;html=1;align=center;verticalAlign=middle;resizable=0;points=[];autosize=1;fontColor=#000000;" vertex="1" parent="T1Asv5-lbITlJTZevgzh-1">
          <mxGeometry x="285" y="320" width="60" height="20" as="geometry" />
        </mxCell>
        <mxCell id="xDdioc2tMFnnwfWLWseS-30" value="Dr. Seuss" style="text;html=1;align=center;verticalAlign=middle;resizable=0;points=[];autosize=1;fontColor=#000000;" vertex="1" parent="T1Asv5-lbITlJTZevgzh-1">
          <mxGeometry x="355" y="320" width="70" height="20" as="geometry" />
        </mxCell>
        <mxCell id="xDdioc2tMFnnwfWLWseS-31" value="&lt;font color=&quot;#3908FF&quot;&gt;A biography of Dr. Seuss&lt;/font&gt;" style="text;html=1;strokeColor=none;fillColor=none;align=center;verticalAlign=middle;whiteSpace=wrap;rounded=0;fontColor=#000000;" vertex="1" parent="T1Asv5-lbITlJTZevgzh-1">
          <mxGeometry x="345" y="390" width="210" height="20" as="geometry" />
        </mxCell>
        <mxCell id="xDdioc2tMFnnwfWLWseS-32" value="Title:" style="text;html=1;strokeColor=none;fillColor=none;align=center;verticalAlign=middle;whiteSpace=wrap;rounded=0;fontColor=#000000;" vertex="1" parent="T1Asv5-lbITlJTZevgzh-1">
          <mxGeometry x="295" y="390" width="40" height="20" as="geometry" />
        </mxCell>
        <mxCell id="xDdioc2tMFnnwfWLWseS-33" value="Type:" style="text;html=1;align=center;verticalAlign=middle;resizable=0;points=[];autosize=1;fontColor=#000000;" vertex="1" parent="T1Asv5-lbITlJTZevgzh-1">
          <mxGeometry x="290" y="410" width="50" height="20" as="geometry" />
        </mxCell>
        <mxCell id="xDdioc2tMFnnwfWLWseS-34" value="Magazine" style="text;html=1;align=center;verticalAlign=middle;resizable=0;points=[];autosize=1;fontColor=#000000;" vertex="1" parent="T1Asv5-lbITlJTZevgzh-1">
          <mxGeometry x="370" y="410" width="70" height="20" as="geometry" />
        </mxCell>
        <mxCell id="xDdioc2tMFnnwfWLWseS-35" value="Author:" style="text;html=1;align=center;verticalAlign=middle;resizable=0;points=[];autosize=1;fontColor=#000000;" vertex="1" parent="T1Asv5-lbITlJTZevgzh-1">
          <mxGeometry x="290" y="430" width="60" height="20" as="geometry" />
        </mxCell>
        <mxCell id="xDdioc2tMFnnwfWLWseS-36" value="Author B" style="text;html=1;align=center;verticalAlign=middle;resizable=0;points=[];autosize=1;fontColor=#000000;" vertex="1" parent="T1Asv5-lbITlJTZevgzh-1">
          <mxGeometry x="370" y="430" width="70" height="20" as="geometry" />
        </mxCell>
        <mxCell id="5ZSrXYOKHZ7vL-d9rr6l-0" value="&lt;font style=&quot;font-size: 25px&quot; color=&quot;#009900&quot;&gt;Go&lt;/font&gt;" style="rounded=0;whiteSpace=wrap;html=1;fontColor=#3908FF;" vertex="1" parent="T1Asv5-lbITlJTZevgzh-1">
          <mxGeometry x="550" y="100" width="80" height="50" as="geometry" />
        </mxCell>
        <mxCell id="tbwxGab4iM1XXnSFzvlE-0" value="Advanced options" style="text;html=1;align=center;verticalAlign=middle;whiteSpace=wrap;rounded=0;fontColor=#3908FF;" vertex="1" parent="T1Asv5-lbITlJTZevgzh-1">
          <mxGeometry x="660" y="150" width="110" height="20" as="geometry" />
        </mxCell>
        <mxCell id="tbwxGab4iM1XXnSFzvlE-2" value="&lt;u&gt;&lt;b&gt;Related Searches&lt;/b&gt;&lt;/u&gt;" style="text;html=1;strokeColor=none;fillColor=none;align=center;verticalAlign=middle;whiteSpace=wrap;rounded=0;fontColor=#000000;" vertex="1" parent="T1Asv5-lbITlJTZevgzh-1">
          <mxGeometry x="600" y="225" width="140" height="20" as="geometry" />
        </mxCell>
        <mxCell id="tbwxGab4iM1XXnSFzvlE-3" value="&lt;font color=&quot;#3908FF&quot;&gt;Shel Silverstein&lt;/font&gt;" style="text;html=1;strokeColor=none;fillColor=none;align=center;verticalAlign=middle;whiteSpace=wrap;rounded=0;fontColor=#000000;" vertex="1" parent="T1Asv5-lbITlJTZevgzh-1">
          <mxGeometry x="590" y="250" width="150" height="20" as="geometry" />
        </mxCell>
        <mxCell id="tbwxGab4iM1XXnSFzvlE-4" value="&lt;font color=&quot;#3908FF&quot;&gt;Children&#39;s Authors&lt;/font&gt;" style="text;html=1;align=center;verticalAlign=middle;resizable=0;points=[];autosize=1;fontColor=#000000;" vertex="1" parent="T1Asv5-lbITlJTZevgzh-1">
          <mxGeometry x="610" y="280" width="120" height="20" as="geometry" />
        </mxCell>
        <mxCell id="tbwxGab4iM1XXnSFzvlE-5" value="&lt;font color=&quot;#3908FF&quot;&gt;Award-Winning Authors&lt;/font&gt;" style="text;html=1;align=center;verticalAlign=middle;resizable=0;points=[];autosize=1;fontColor=#000000;" vertex="1" parent="T1Asv5-lbITlJTZevgzh-1">
          <mxGeometry x="610" y="310" width="150" height="20" as="geometry" />
        </mxCell>
      </root>
    </mxGraphModel>
  </diagram>
</mxfile>
